<svg xmlns="http://www.w3.org/2000/svg" xmlns:xlink="http://www.w3.org/1999/xlink" width="500" zoomAndPan="magnify" viewBox="0 0 375 374.999991" height="500" preserveAspectRatio="xMidYMid meet" version="1.0"><defs><clipPath id="ce5be3a508"><path d="M 78 78 L 297 78 L 297 297 L 78 297 Z M 78 78 " clip-rule="nonzero"/></clipPath><clipPath id="57790a5415"><path d="M 338.679688 160.519531 L 214.289062 338.941406 L 35.871094 214.554688 L 160.257812 36.132812 Z M 338.679688 160.519531 " clip-rule="nonzero"/></clipPath><clipPath id="d017a0a468"><path d="M 338.679688 160.519531 L 214.472656 338.683594 L 36.308594 214.476562 L 160.515625 36.3125 Z M 338.679688 160.519531 " clip-rule="nonzero"/></clipPath><clipPath id="3f38a6fa95"><path d="M 276.574219 249.601562 C 310.875 200.402344 298.796875 132.714844 249.597656 98.417969 C 200.398438 64.117188 132.710938 76.195312 98.414062 125.394531 C 64.113281 174.59375 76.191406 242.28125 125.390625 276.578125 C 174.589844 310.878906 242.277344 298.800781 276.574219 249.601562 Z M 276.574219 249.601562 " clip-rule="nonzero"/></clipPath><clipPath id="04d60a416b"><path d="M 129 129 L 278 129 L 278 278 L 129 278 Z M 129 129 " clip-rule="nonzero"/></clipPath><clipPath id="2c44b1bab7"><path d="M 306.148438 185.191406 L 221.652344 306.394531 L 100.449219 221.894531 L 184.949219 100.691406 Z M 306.148438 185.191406 " clip-rule="nonzero"/></clipPath><clipPath id="f4e5da8311"><path d="M 306.148438 185.191406 L 221.820312 306.152344 L 100.855469 221.824219 L 185.1875 100.859375 Z M 306.148438 185.191406 " clip-rule="nonzero"/></clipPath><clipPath id="42d7a61013"><path d="M 263.984375 245.671875 C 287.273438 212.269531 279.070312 166.3125 245.667969 143.023438 C 212.265625 119.738281 166.308594 127.9375 143.023438 161.339844 C 119.734375 194.742188 127.9375 240.699219 161.339844 263.988281 C 194.742188 287.273438 240.699219 279.074219 263.984375 245.671875 Z M 263.984375 245.671875 " clip-rule="nonzero"/></clipPath><clipPath id="80752f8a3b"><path d="M 178.804688 178.808594 L 268.757812 178.808594 L 268.757812 268.761719 L 178.804688 268.761719 Z M 178.804688 178.808594 " clip-rule="nonzero"/></clipPath><clipPath id="8c98c53c4b"><path d="M 268.757812 223.785156 C 268.757812 198.945312 248.621094 178.808594 223.78125 178.808594 C 198.941406 178.808594 178.804688 198.945312 178.804688 223.785156 C 178.804688 248.625 198.941406 268.761719 223.78125 268.761719 C 248.621094 268.761719 268.757812 248.625 268.757812 223.785156 Z M 268.757812 223.785156 " clip-rule="nonzero"/></clipPath></defs><g clip-path="url(#ce5be3a508)"><g clip-path="url(#57790a5415)"><g clip-path="url(#d017a0a468)"><g clip-path="url(#3f38a6fa95)"><path stroke-linecap="butt" transform="matrix(-0.428924, 0.615243, -0.615243, -0.428924, 338.678097, 160.521201)" fill="none" stroke-linejoin="miter" d="M 144.789222 0.000477352 C 64.82137 -0.000568802 -0.00293723 64.823942 0.000289134 144.788815 C -0.00075702 224.756667 64.823753 289.580974 144.788627 289.577747 C 224.756479 289.578794 289.580786 224.754283 289.577559 144.78941 C 289.578605 64.821558 224.754095 -0.00274902 144.789222 0.000477352 Z M 144.789222 0.000477352 " stroke="#ffffff" stroke-width="84" stroke-opacity="1" stroke-miterlimit="4"/></g></g></g></g><g clip-path="url(#04d60a416b)"><g clip-path="url(#2c44b1bab7)"><g clip-path="url(#f4e5da8311)"><g clip-path="url(#42d7a61013)"><path stroke-linecap="butt" transform="matrix(-0.428924, 0.615243, -0.615243, -0.428924, 306.150277, 185.190384)" fill="none" stroke-linejoin="miter" d="M 98.305422 0.000558648 C 44.012433 -0.00187059 0.00135175 44.014124 -0.00107749 98.307112 C 0.000765795 152.597123 44.012487 196.611183 98.302498 196.60934 C 152.595487 196.611769 196.606568 152.595775 196.608997 98.302786 C 196.607154 44.012776 152.595433 -0.00128464 98.305422 0.000558648 Z M 98.305422 0.000558648 " stroke="#ffffff" stroke-width="60" stroke-opacity="1" stroke-miterlimit="4"/></g></g></g></g><g clip-path="url(#80752f8a3b)"><g clip-path="url(#8c98c53c4b)"><path stroke-linecap="butt" transform="matrix(-0.000000001309, 0.75, -0.75, -0.000000001309, 268.759439, 178.807752)" fill="none" stroke-linejoin="miter" d="M 59.969876 0.00216836 C 26.850082 0.00216842 0.00112204 26.851129 0.00112209 59.970922 C 0.00112215 93.090716 26.850082 119.939676 59.969876 119.939676 C 93.08967 119.939676 119.93863 93.090716 119.93863 59.970922 C 119.93863 26.851128 93.08967 0.00216831 59.969876 0.00216836 Z M 59.969876 0.00216836 " stroke="#ffffff" stroke-width="60" stroke-opacity="1" stroke-miterlimit="4"/></g></g></svg>