<?xml version="1.0" encoding="utf-8" ?>
<svg baseProfile="full" height="500px" version="1.1" width="500px" xmlns="http://www.w3.org/2000/svg" xmlns:ev="http://www.w3.org/2001/xml-events" xmlns:xlink="http://www.w3.org/1999/xlink"><defs /><path d="M 249,84 L 248,85 L 245,85 L 244,86 L 243,86 L 242,87 L 241,87 L 235,93 L 235,94 L 234,95 L 234,96 L 232,98 L 232,99 L 230,101 L 230,102 L 228,104 L 228,105 L 226,107 L 226,108 L 224,110 L 224,111 L 222,113 L 222,114 L 221,115 L 221,116 L 219,118 L 219,119 L 217,121 L 217,122 L 215,124 L 215,125 L 213,127 L 213,128 L 211,130 L 211,131 L 209,133 L 209,134 L 208,135 L 208,136 L 206,138 L 206,139 L 204,141 L 204,142 L 202,144 L 202,145 L 200,147 L 200,148 L 198,150 L 198,151 L 196,153 L 196,154 L 195,155 L 195,156 L 193,158 L 193,159 L 191,161 L 191,162 L 189,164 L 189,165 L 187,167 L 187,168 L 185,170 L 185,171 L 183,173 L 183,174 L 182,175 L 182,176 L 180,178 L 180,179 L 178,181 L 178,182 L 176,184 L 176,185 L 174,187 L 174,188 L 172,190 L 172,191 L 170,193 L 170,194 L 169,195 L 169,196 L 167,198 L 167,199 L 165,201 L 165,202 L 163,204 L 163,205 L 161,207 L 161,208 L 159,210 L 159,211 L 157,213 L 157,214 L 156,215 L 156,216 L 154,218 L 154,219 L 152,221 L 152,222 L 150,224 L 150,225 L 149,226 L 149,227 L 148,228 L 148,229 L 147,230 L 147,231 L 146,232 L 146,234 L 145,235 L 145,238 L 144,239 L 144,244 L 143,245 L 143,253 L 144,254 L 144,259 L 145,260 L 145,263 L 146,264 L 146,265 L 147,266 L 147,268 L 148,269 L 148,270 L 149,271 L 149,272 L 151,274 L 151,275 L 152,276 L 152,277 L 154,279 L 154,280 L 155,281 L 155,282 L 157,284 L 157,285 L 159,287 L 159,288 L 160,289 L 160,290 L 162,292 L 162,293 L 164,295 L 164,296 L 165,297 L 165,298 L 167,300 L 167,301 L 168,302 L 168,303 L 170,305 L 170,306 L 172,308 L 172,309 L 173,310 L 173,311 L 175,313 L 175,314 L 177,316 L 177,317 L 178,318 L 178,319 L 180,321 L 180,322 L 181,323 L 181,324 L 183,326 L 183,327 L 185,329 L 185,330 L 186,331 L 186,332 L 188,334 L 188,335 L 190,337 L 190,338 L 191,339 L 191,340 L 193,342 L 193,343 L 194,344 L 194,345 L 196,347 L 196,348 L 198,350 L 198,351 L 199,352 L 199,353 L 201,355 L 201,356 L 202,357 L 202,358 L 204,360 L 204,361 L 206,363 L 206,364 L 207,365 L 207,366 L 209,368 L 209,369 L 211,371 L 211,372 L 212,373 L 212,374 L 214,376 L 214,377 L 215,378 L 215,379 L 217,381 L 217,382 L 219,384 L 219,385 L 220,386 L 220,387 L 222,389 L 222,390 L 224,392 L 224,393 L 225,394 L 225,395 L 227,397 L 227,398 L 228,399 L 228,400 L 230,402 L 230,403 L 232,405 L 232,406 L 234,408 L 234,409 L 236,411 L 237,411 L 239,413 L 241,413 L 242,414 L 244,414 L 245,415 L 251,415 L 252,414 L 254,414 L 255,413 L 256,413 L 257,412 L 258,412 L 263,407 L 263,406 L 265,404 L 265,403 L 267,401 L 267,400 L 269,398 L 269,397 L 271,395 L 271,394 L 273,392 L 273,391 L 275,389 L 275,388 L 276,387 L 276,386 L 278,384 L 278,383 L 280,381 L 280,380 L 282,378 L 282,377 L 284,375 L 284,374 L 286,372 L 286,371 L 288,369 L 288,368 L 289,367 L 289,366 L 291,364 L 291,363 L 293,361 L 293,360 L 295,358 L 295,357 L 297,355 L 297,354 L 299,352 L 299,351 L 301,349 L 301,348 L 302,347 L 302,346 L 304,344 L 304,343 L 306,341 L 306,340 L 308,338 L 308,337 L 310,335 L 310,334 L 312,332 L 312,331 L 314,329 L 314,328 L 315,327 L 315,326 L 317,324 L 317,323 L 319,321 L 319,320 L 321,318 L 321,317 L 323,315 L 323,314 L 325,312 L 325,311 L 327,309 L 327,308 L 328,307 L 328,306 L 330,304 L 330,303 L 332,301 L 332,300 L 334,298 L 334,297 L 336,295 L 336,294 L 338,292 L 338,291 L 340,289 L 340,288 L 341,287 L 341,286 L 343,284 L 343,283 L 345,281 L 345,280 L 347,278 L 347,277 L 349,275 L 349,274 L 350,273 L 350,272 L 351,271 L 351,270 L 352,269 L 352,267 L 353,266 L 353,265 L 354,264 L 354,261 L 355,260 L 355,254 L 356,253 L 356,247 L 355,246 L 355,240 L 354,239 L 354,237 L 353,236 L 353,234 L 352,233 L 352,231 L 351,230 L 351,229 L 350,228 L 350,227 L 348,225 L 348,224 L 347,223 L 347,222 L 345,220 L 345,219 L 343,217 L 343,216 L 342,215 L 342,214 L 340,212 L 340,211 L 339,210 L 339,209 L 337,207 L 337,206 L 335,204 L 335,203 L 334,202 L 334,201 L 332,199 L 332,198 L 331,197 L 331,196 L 329,194 L 329,193 L 327,191 L 327,190 L 326,189 L 326,188 L 324,186 L 324,185 L 322,183 L 322,182 L 321,181 L 321,180 L 319,178 L 319,177 L 318,176 L 318,175 L 316,173 L 316,172 L 314,170 L 314,169 L 313,168 L 313,167 L 311,165 L 311,164 L 309,162 L 309,161 L 308,160 L 308,159 L 306,157 L 306,156 L 305,155 L 305,154 L 303,152 L 303,151 L 301,149 L 301,148 L 300,147 L 300,146 L 298,144 L 298,143 L 297,142 L 297,141 L 295,139 L 295,138 L 293,136 L 293,135 L 292,134 L 292,133 L 290,131 L 290,130 L 288,128 L 288,127 L 287,126 L 287,125 L 285,123 L 285,122 L 284,121 L 284,120 L 282,118 L 282,117 L 280,115 L 280,114 L 279,113 L 279,112 L 277,110 L 277,109 L 275,107 L 275,106 L 274,105 L 274,104 L 272,102 L 272,101 L 271,100 L 271,99 L 269,97 L 269,96 L 267,94 L 267,93 L 265,91 L 265,90 L 263,88 L 262,88 L 260,86 L 258,86 L 257,85 L 255,85 L 254,84 Z" fill="white" /><path d="M 251,144 L 252,145 L 252,146 L 254,148 L 254,149 L 255,150 L 255,151 L 257,153 L 257,154 L 258,155 L 258,156 L 260,158 L 260,159 L 262,161 L 262,162 L 263,163 L 263,164 L 265,166 L 265,167 L 266,168 L 266,169 L 268,171 L 268,172 L 270,174 L 270,175 L 271,176 L 271,177 L 273,179 L 273,180 L 274,181 L 274,182 L 276,184 L 276,185 L 278,187 L 278,188 L 279,189 L 279,190 L 281,192 L 281,193 L 283,195 L 283,196 L 284,197 L 284,198 L 286,200 L 286,201 L 287,202 L 287,203 L 289,205 L 289,206 L 291,208 L 291,209 L 292,210 L 292,211 L 294,213 L 294,214 L 295,215 L 295,216 L 297,218 L 297,219 L 299,221 L 299,222 L 300,223 L 300,224 L 302,226 L 302,227 L 304,229 L 304,230 L 305,231 L 305,232 L 307,234 L 307,235 L 308,236 L 308,237 L 310,239 L 310,240 L 312,242 L 312,243 L 313,244 L 313,245 L 315,247 L 315,249 L 316,250 L 316,251 L 315,252 L 315,253 L 314,254 L 314,255 L 312,257 L 312,258 L 310,260 L 310,261 L 308,263 L 308,264 L 306,266 L 306,267 L 304,269 L 304,270 L 303,271 L 303,272 L 301,274 L 301,275 L 299,277 L 299,278 L 297,280 L 297,281 L 295,283 L 295,284 L 293,286 L 293,287 L 291,289 L 291,290 L 290,291 L 290,292 L 288,294 L 288,295 L 286,297 L 286,298 L 284,300 L 284,301 L 282,303 L 282,304 L 280,306 L 280,307 L 278,309 L 278,310 L 277,311 L 277,312 L 275,314 L 275,315 L 273,317 L 273,318 L 271,320 L 271,321 L 269,323 L 269,324 L 267,326 L 267,327 L 265,329 L 265,330 L 264,331 L 264,332 L 262,334 L 262,335 L 260,337 L 260,338 L 258,340 L 258,341 L 256,343 L 256,344 L 254,346 L 254,347 L 252,349 L 252,350 L 251,351 L 251,352 L 248,355 L 247,354 L 247,353 L 245,351 L 245,350 L 244,349 L 244,348 L 242,346 L 242,345 L 241,344 L 241,343 L 239,341 L 239,340 L 237,338 L 237,337 L 236,336 L 236,335 L 234,333 L 234,332 L 233,331 L 233,330 L 231,328 L 231,327 L 229,325 L 229,324 L 228,323 L 228,322 L 226,320 L 226,319 L 224,317 L 224,316 L 223,315 L 223,314 L 222,313 L 222,310 L 224,308 L 224,307 L 226,305 L 226,304 L 228,302 L 228,301 L 229,300 L 229,299 L 231,297 L 231,296 L 233,294 L 233,293 L 235,291 L 235,290 L 236,289 L 236,288 L 238,286 L 238,285 L 240,283 L 240,282 L 241,281 L 241,280 L 243,278 L 243,277 L 245,275 L 245,274 L 247,272 L 247,271 L 248,270 L 248,269 L 250,267 L 250,266 L 252,264 L 252,263 L 253,262 L 253,261 L 255,259 L 255,258 L 257,256 L 257,255 L 258,254 L 258,245 L 257,244 L 257,243 L 255,241 L 255,240 L 253,238 L 253,237 L 252,236 L 252,235 L 250,233 L 250,232 L 248,230 L 248,229 L 247,228 L 247,227 L 245,225 L 245,224 L 243,222 L 243,221 L 241,219 L 241,218 L 240,217 L 240,216 L 238,214 L 238,213 L 236,211 L 236,210 L 235,209 L 235,208 L 233,206 L 233,205 L 231,203 L 231,202 L 229,200 L 229,199 L 228,198 L 228,197 L 226,195 L 226,194 L 224,192 L 224,191 L 222,189 L 222,187 L 224,185 L 224,184 L 226,182 L 226,181 L 228,179 L 228,178 L 230,176 L 230,175 L 232,173 L 232,172 L 234,170 L 234,169 L 235,168 L 235,167 L 237,165 L 237,164 L 239,162 L 239,161 L 241,159 L 241,158 L 243,156 L 243,155 L 245,153 L 245,152 L 247,150 L 247,149 L 248,148 L 248,147 Z" fill="black" /></svg>